<?xml version="1.0" standalone="no"?>
<!DOCTYPE svg PUBLIC "-//W3C//DTD SVG 20010904//EN"
 "http://www.w3.org/TR/2001/REC-SVG-20010904/DTD/svg10.dtd">
<svg version="1.0" xmlns="http://www.w3.org/2000/svg"
 width="225.000000pt" height="225.000000pt" viewBox="0 0 225.000000 225.000000"
 preserveAspectRatio="xMidYMid meet">

<g transform="translate(0.000000,225.000000) scale(0.100000,-0.100000)"
fill="#000000" stroke="none">
<path d="M1221 2115 c-84 -19 -152 -42 -226 -76 l-60 -28 100 0 c229 -2 469
-91 610 -226 50 -48 53 -53 66 -130 17 -97 17 -278 0 -360 -43 -209 -136 -382
-286 -531 -74 -74 -79 -81 -49 -72 118 32 288 129 390 221 145 132 261 342
300 545 17 90 18 268 2 364 -11 69 -12 71 -67 114 -71 56 -233 137 -331 165
-98 28 -352 36 -449 14z" fill="white"/>
<path d="M678 1864 c-94 -17 -219 -62 -304 -109 -95 -53 -212 -150 -221 -182
-5 -16 -8 -93 -8 -173 1 -118 5 -161 23 -230 64 -242 218 -452 427 -586 l30
-19 -23 35 c-112 171 -172 398 -158 595 9 133 13 142 96 212 184 155 385 231
631 240 145 6 234 -4 328 -38 30 -10 56 -17 59 -15 7 8 -147 124 -212 161
-195 109 -445 150 -668 109z" fill="white"/>
<path d="M649 1265 c-22 -111 -18 -321 9 -429 83 -331 334 -602 659 -710 l52
-17 103 50 c307 148 512 448 542 791 l7 75 -33 -60 c-102 -185 -256 -333 -435
-417 -113 -53 -128 -55 -220 -24 -318 106 -564 380 -648 721 l-22 90 -14 -70z" fill="white"/>
</g>
</svg>
